<svg width="500" height="500" viewBox="0 0 500 500" fill="none" xmlns="http://www.w3.org/2000/svg">
<path d="M121.667 400C110.061 400 101.813 394.583 96.9209 383.75C92.0292 372.917 93.6112 363.056 101.667 354.167L203.994 238.635C204.642 237.904 205 236.96 205 235.983V129C205 126.791 203.209 125 201 125H183.333C179.792 125 176.824 123.794 174.429 121.383C172.032 118.975 170.833 115.989 170.833 112.425C170.833 108.864 172.032 105.903 174.429 103.542C176.824 101.181 179.792 100 183.333 100H316.667C320.208 100 323.178 101.206 325.575 103.617C327.97 106.025 329.167 109.011 329.167 112.575C329.167 116.136 327.97 119.097 325.575 121.458C323.178 123.819 320.208 125 316.667 125H299C296.791 125 295 126.791 295 129V235.983C295 236.96 295.358 237.904 296.006 238.635L398.333 354.167C406.389 363.056 407.971 372.917 403.079 383.75C398.188 394.583 389.939 400 378.333 400H121.667Z" fill="#111111"/>
</svg>
